:SAMPLES-PER-SECOND 30
:FRAME-RANGE 1-4244
:FULLY-SPECIFIED
:DEGREES
1459
root  58.1823 36.2851 26.0545 169.111 22.7625 165.494
RightUpLeg  -22.5355 -3.18951 -24.9276
RightLeg  48.9346 -0.841516 -1.37751
RightFoot  -18.9472 0.761493 13.3427
RightToes  -1.33073e-015 0 -3.6325e-017
Spine  15.6135 4.93765 15.5337
Spine1  1.78555 6.78394 0.544882
HEad  8.86569 14.6688 -24.8129
LeftShoulder1  -0.196699 -6.81406 11.6223
LeftArm  -49.7088 -54.2729 -2.89233
LeftForeArm  56.0892 -45.187 -7.51901
LeftHand  0.0364636 6.20655 8.52574
RightShoulder  3.059 11.2865 14.2122
RightArm  -20.257 57.2049 67.0438
RightForeArm  67.5218 7.84534 -1.16949
RightHand  -2.10431 -1.0714 -53.0553
LeftUpLeg  -23.4862 -17.7151 7.62043
LeftLeg  34.4692 -10.026 -6.97412
LeftFoot  -8.86142 0.371946 -14.6746
LeftToes  2.72522e-012 8.43823e-011 6.24977e-012
1460
root  58.2841 36.4444 26.8725 170.908 18.5182 167.444
RightUpLeg  -21.95 -6.8502 -23.1585
RightLeg  47.6143 -1.49441 -2.08563
RightFoot  -17.7391 0.598313 12.8181
RightToes  -1.33073e-015 0 -3.6325e-017
Spine  15.1564 4.86341 15.4379
Spine1  1.45943 6.59774 0.90262
HEad  8.96518 14.0849 -24.4769
LeftShoulder1  -0.197972 -6.80968 11.6377
LeftArm  -52.4079 -50.8663 -1.07281
LeftForeArm  54.004 -44.6281 -7.45521
LeftHand  0.0661668 6.2843 11.2332
RightShoulder  2.7964 10.8018 12.9509
RightArm  -24.6624 59.6454 60.0759
RightForeArm  66.7491 9.81847 -1.27537
RightHand  -2.24204 -0.781072 -52.953
LeftUpLeg  -23.5406 -15.579 8.0925
LeftLeg  37.2778 -6.74396 -5.11347
LeftFoot  -7.83873 0.479339 -14.0885
LeftToes  2.72522e-012 8.43823e-011 6.24977e-012
1461
root  58.3608 36.5153 27.6896 172.91 14.9058 169.299
RightUpLeg  -22.3036 -8.54865 -21.2978
RightLeg  46.4395 -2.43079 -3.0576
RightFoot  -16.7841 0.494608 12.7622
RightToes  -1.33073e-015 0 -3.6325e-017
Spine  15.2143 4.47363 15.6887
Spine1  0.456142 6.49336 -0.2765
HEad  8.22098 13.225 -23.7463
LeftShoulder1  -0.21971 -6.74427 11.9003
LeftArm  -54.0055 -46.9408 0.40498
LeftForeArm  50.9922 -44.1251 -7.46565
LeftHand  0.0991637 6.38105 13.6604
RightShoulder  2.67119 10.5483 12.3508
RightArm  -30.0918 61.881 51.7584
RightForeArm  66.7405 11.1274 -1.4963
RightHand  -2.11322 -1.04761 -52.9946
LeftUpLeg  -23.6982 -13.1542 9.36821
LeftLeg  39.8564 -3.71131 -2.93202
LeftFoot  -8.05303 0.442362 -13.6833
LeftToes  2.72522e-012 8.43823e-011 6.24977e-012
1462
root  58.3784 36.5476 28.4511 174.401 11.3504 170.508
RightUpLeg  -22.7259 -9.3219 -20.1239
RightLeg  45.6368 -3.8484 -4.51923
RightFoot  -15.8588 0.418776 13.302
RightToes  -1.33073e-015 0 -3.6325e-017
Spine  14.9457 4.18173 15.0918
Spine1  0.742465 6.23785 -0.855289
HEad  6.71536 11.5718 -23.3911
LeftShoulder1  -0.228782 -6.70078 12.0152
LeftArm  -56.6095 -43.3482 1.08915
LeftForeArm  49.2009 -43.5173 -7.37811
LeftHand  0.112192 6.37604 15.0397
RightShoulder  2.35469 10.0003 10.5859
RightArm  -37.464 63.8167 41.8768
RightForeArm  66.1888 12.4774 -1.83136
RightHand  -2.0011 -1.21156 -52.2761
LeftUpLeg  -23.3225 -11.1944 10.4889
LeftLeg  41.6857 -1.27599 -0.821588
LeftFoot  -7.50255 0.479823 -12.9366
LeftToes  2.72522e-012 8.43823e-011 6.24977e-012
1463
root  58.3225 36.5194 29.1747 175.785 7.24327 171.474
RightUpLeg  -23.2774 -11.1079 -19.4468
RightLeg  45.3662 -5.05327 -5.77049
RightFoot  -14.8791 0.327109 13.8146
RightToes  -1.33073e-015 0 -3.6325e-017
Spine  14.9218 3.61793 14.2074
Spine1  0.707913 5.64641 -1.21832
HEad  5.34809 9.07471 -22.6891
LeftShoulder1  -0.212931 -6.81042 11.8071
LeftArm  -57.5239 -40.4267 1.68719
LeftForeArm  44.218 -41.5057 -7.05684
LeftHand  0.0373424 5.73103 16.7749
RightShoulder  1.96653 9.2209 8.34509
RightArm  -46.0159 64.6204 30.5669
RightForeArm  64.7935 13.4161 -2.04308
RightHand  -1.87702 -1.41216 -51.6245
LeftUpLeg  -23.0635 -10.302 11.8621
LeftLeg  42.8362 0.256852 0.657546
LeftFoot  -7.14376 0.48882 -12.1381
LeftToes  2.72522e-012 8.43823e-011 6.24977e-012
1464
root  58.2046 36.4615 29.8516 177.208 2.88554 172.547
RightUpLeg  -23.873 -12.9439 -18.7372
RightLeg  45.2197 -6.58696 -7.36642
RightFoot  -13.8502 0.224407 14.4913
RightToes  -1.33073e-015 0 -3.6325e-017
Spine  14.9837 2.92373 13.2687
Spine1  0.668914 4.8168 -1.0543
HEad  3.78767 6.30408 -21.7181
LeftShoulder1  -0.190242 -7.05273 11.4995
LeftArm  -57.6252 -38.0964 1.72835
LeftForeArm  39.9782 -39.8724 -6.82988
LeftHand  -0.0266958 5.28084 17.9026
RightShoulder  1.57349 8.24161 6.00141
RightArm  -55.0849 64.3336 18.5097
RightForeArm  63.2295 13.8661 -2.35787
RightHand  -1.57843 -1.96926 -50.6903
LeftUpLeg  -23.0222 -9.48552 13.7647
LeftLeg  43.1662 1.55504 1.96546
LeftFoot  -6.77176 0.485058 -11.1161
LeftToes  2.72522e-012 8.43823e-011 6.24977e-012
1465
root  58.0386 36.4017 30.4914 178.864 -1.27295 173.493
RightUpLeg  -24.9033 -14.9238 -18.0357
RightLeg  45.1078 -8.16569 -8.98598
RightFoot  -12.6414 0.0849584 15.0133
RightToes  -1.33073e-015 0 -3.6325e-017
Spine  14.9882 2.22763 12.0221
Spine1  0.707241 3.86853 -0.601903
HEad  1.86623 3.53407 -20.6171
LeftShoulder1  -0.16344 -7.3175 11.1577
LeftArm  -57.0952 -36.2662 1.14636
LeftForeArm  36.1086 -38.4806 -6.66542
LeftHand  -0.129496 4.65257 19.1672
RightShoulder  1.17657 7.12853 3.32252
RightArm  -63.5102 63.0813 8.17732
RightForeArm  61.2534 14.3053 -2.88003
RightHand  -1.44534 -2.22746 -50.3039
LeftUpLeg  -23.2572 -8.63329 15.8496
LeftLeg  42.2127 2.91345 3.22522
LeftFoot  -5.3496 0.508525 -9.09153
LeftToes  2.72522e-012 8.43823e-011 6.24977e-012
1466
root  57.8047 36.3732 31.1121 -179.439 -5.11018 174.411
RightUpLeg  -25.944 -16.9567 -17.3566
RightLeg  44.481 -9.30327 -9.94571
RightFoot  -11.4554 -0.0631306 15.0855
RightToes  -1.33073e-015 0 -3.6325e-017
Spine  15.4429 1.41878 11.0286
Spine1  0.283026 2.928 -0.512488
HEad  -0.115553 0.691498 -18.8495
LeftShoulder1  -0.106105 -7.60427 10.5085
LeftArm  -55.9629 -35.1977 0.172545
LeftForeArm  34.453 -37.6458 -6.53271
LeftHand  -0.196504 4.28585 19.955
RightShoulder  0.876463 6.13219 1.03787
RightArm  -71.708 61.0154 0.661988
RightForeArm  60.4713 15.5434 -3.31682
RightHand  -1.41463 -2.28314 -50.1486
LeftUpLeg  -23.4733 -7.92249 17.8505
LeftLeg  39.5757 4.1515 4.05373
LeftFoot  -2.95145 0.411028 -5.36093
LeftToes  2.72522e-012 8.43823e-011 6.24977e-012
